<svg xmlns="http://www.w3.org/2000/svg" xmlns:xlink="http://www.w3.org/1999/xlink" width="16" height="17" viewBox="0 0 16 17"><defs><path id="a" d="M0 .042V16.35h15.982V.04H0z"/><path id="c" d="M12.776.041H.037v6.57h12.74V.041z"/></defs><g fill="none" fill-rule="evenodd"><g transform="translate(0 .003)"><mask id="b" fill="#fff"><use xlink:href="#a"/></mask><path fill="#FFF" d="M5.49.488A8.2 8.2 0 0 0 .87 4.534a8.073 8.073 0 0 0-.71 2.051 8.182 8.182 0 0 0 .706 5.273 8.227 8.227 0 0 0 2.214 2.723 8.124 8.124 0 0 0 2.963 1.494c1.359.364 2.805.356 4.173.044a7.4 7.4 0 0 0 3.34-1.736c.987-.907 1.692-2.1 2.065-3.384.408-1.398.46-2.893.206-4.33H8.156V9.85H12.6a3.84 3.84 0 0 1-1.631 2.52 4.671 4.671 0 0 1-1.797.71c-.64.11-1.307.123-1.947-.004a4.827 4.827 0 0 1-1.814-.785A5.042 5.042 0 0 1 3.544 9.79a4.948 4.948 0 0 1 0-3.173A5.093 5.093 0 0 1 4.728 4.69a4.836 4.836 0 0 1 2.437-1.354 4.865 4.865 0 0 1 2.394.096 4.39 4.39 0 0 1 1.757 1.035l1.5-1.5c.263-.267.539-.525.793-.802A7.95 7.95 0 0 0 10.983.54 8.23 8.23 0 0 0 5.491.488" mask="url(#b)"/></g><g transform="translate(.833 .003)"><mask id="d" fill="#fff"><use xlink:href="#c"/></mask><path fill="#EA4335" d="M4.658.488a8.257 8.257 0 0 1 5.492.048c.973.36 1.863.92 2.626 1.626-.254.276-.53.535-.793.802l-1.5 1.5a4.44 4.44 0 0 0-1.757-1.035 4.814 4.814 0 0 0-2.394-.097c-.92.198-1.775.68-2.437 1.355a5.06 5.06 0 0 0-1.184 1.924L.037 4.538a8.193 8.193 0 0 1 4.62-4.05" mask="url(#d)"/></g><path fill="#FBBC05" d="M.165 6.583a8.06 8.06 0 0 1 .71-2.051c.89.692 1.78 1.38 2.674 2.073a4.918 4.918 0 0 0 0 3.174c-.89.693-1.78 1.385-2.67 2.073a8.113 8.113 0 0 1-.714-5.269"/><path fill="#4285F4" d="M8.156 6.667h7.671a9.643 9.643 0 0 1-.206 4.33c-.373 1.285-1.078 2.477-2.065 3.385l-2.59-2.012a3.84 3.84 0 0 0 1.63-2.521H8.151c.005-1.06.005-2.122.005-3.182"/><path fill="#34A853" d="M.87 11.857c.89-.689 1.78-1.381 2.67-2.074a5.067 5.067 0 0 0 1.867 2.503 4.857 4.857 0 0 0 1.815.785c.64.131 1.302.114 1.946.004a4.67 4.67 0 0 0 1.798-.71l2.59 2.012c-.933.864-2.104 1.451-3.34 1.736-1.368.311-2.814.32-4.173-.044a8.057 8.057 0 0 1-2.963-1.494 8.209 8.209 0 0 1-2.21-2.718"/></g></svg>