<svg width="24" height="24" xmlns="http://www.w3.org/2000/svg"><g fill="none" fill-rule="evenodd"><path d="M12 0c6.627 0 12 5.372 12 12 0 6.627-5.373 12-12 12S0 18.627 0 12C0 5.372 5.373 0 12 0" fill="#CB2027"/><path d="M12.873 15.028c-.817-.063-1.162-.47-1.804-.858-.352 1.85-.783 3.623-2.059 4.55-.395-2.796.578-4.897 1.03-7.127-.771-1.296.093-3.906 1.717-3.262 1.999.79-1.731 4.82.773 5.323 2.614.525 3.681-4.536 2.06-6.183-2.342-2.377-6.819-.053-6.268 3.35.134.831.994 1.084.344 2.231-1.5-.332-1.946-1.514-1.89-3.09.093-2.58 2.32-4.387 4.552-4.637 2.823-.317 5.473 1.037 5.839 3.692.411 2.997-1.274 6.243-4.294 6.011" fill="#F1F2F2"/></g></svg>