<svg width="24" height="24" xmlns="http://www.w3.org/2000/svg"><g fill="none" fill-rule="evenodd"><path d="M0 0h24v24H0z"/><path d="M10.503 15.188a4.692 4.692 0 0 1-4.69-4.686 4.692 4.692 0 0 1 4.684-4.69 4.693 4.693 0 0 1 4.69 4.686 4.693 4.693 0 0 1-4.684 4.69m10.092 3.42l-3.206-3.203a1.378 1.378 0 0 0-.908-.393A7.46 7.46 0 0 0 18 10.495 7.5 7.5 0 1 0 10.504 18a7.46 7.46 0 0 0 4.516-1.524c.019.33.14.655.394.908l3.206 3.201a1.396 1.396 0 0 0 1.976 0 1.396 1.396 0 0 0-.001-1.977" fill="#9FA6B0" fill-rule="nonzero"/></g></svg>